# xmcd
#
# Track frame offsets: 
#        150
#        14038
#        29723
#        45096
#        64805
#        84868
#        99560
#        115514
#        136199
#        151397
#        167226
#        178990
#        193877
#        208650
#        221030
#        232994
#        244786
#        259123
#        268786
#        281296
#        295887
#        308650
#        322236
#
# Disc length: 4480 seconds
#
# Revision: 1
# Processed by: cddbd v1.5.2PL0 Copyright (c) Steve Scherf et al.
# Submitted via: ExactAudioCopy v1.3
#
DISCID=53117e17
DTITLE=Various Artist - Compilation Easy Listening Country Favourites  cd2 - 
DTITLE=Crossover Favourites
DYEAR=2000
DGENRE=Country
TTITLE0=Dolly Parton - I Will Always Love You
TTITLE1=Kenny Rogers - Through The Years
TTITLE2=Billy Ray Cyrus - Achy Breaky Heart
TTITLE3=The Mavericks - Dance The Night Away
TTITLE4=John Hiatt - Georgia Rae
TTITLE5=Billie Jo Spears - I Don't Want To Talk About It
TTITLE6=Willie Nelson - Always On My Mind
TTITLE7=Lucinda Williams - Right In Time
TTITLE8=Don Williams - I Recall A Gypsy Woman
TTITLE9=Connie Francis - It Doesn't Matter Anymore
TTITLE10=Johnny Cash - Ring Of Fire
TTITLE11=The Kingston Trio - Tom Dooley
TTITLE12=Bobby Sykes and Lou Darnell - On Top Of Old Smokey
TTITLE13=Jim Reeves - I Love You Because
TTITLE14=Bobby Sykes - Your Cheatin' Heart
TTITLE15=Don Gibson - I Can't Stop Loving You
TTITLE16=Gene Martin - Franky And Johnny
TTITLE17=George McCormick - Jambalaya
TTITLE18=Bobby Sykes and Lou Darnell - Mockin' Bird Hill
TTITLE19=Bobby Sykes - Born To Lose
TTITLE20=Hank Snow - I'm Movin' On
TTITLE21=Jimmy Dean - Big Bad John
TTITLE22=Lee Greenwood - Amazing Grace
EXTD=
EXTT0=
EXTT1=
EXTT2=
EXTT3=
EXTT4=
EXTT5=
EXTT6=
EXTT7=
EXTT8=
EXTT9=
EXTT10=
EXTT11=
EXTT12=
EXTT13=
EXTT14=
EXTT15=
EXTT16=
EXTT17=
EXTT18=
EXTT19=
EXTT20=
EXTT21=
EXTT22=
PLAYORDER=
